<?xml version="1.0" standalone="no"?>
<!DOCTYPE svg PUBLIC "-//W3C//DTD SVG 20010904//EN"
 "http://www.w3.org/TR/2001/REC-SVG-20010904/DTD/svg10.dtd">
<svg version="1.0" xmlns="http://www.w3.org/2000/svg"
 width="80.000000pt" height="170.000000pt" viewBox="0 0 80.000000 170.000000"
 preserveAspectRatio="xMidYMid meet">
<metadata>
Created by potrace 1.16, written by Peter Selinger 2001-2019
</metadata>
<g transform="translate(0.000000,170.000000) scale(0.100000,-0.100000)"
fill="#000000" stroke="none">
<path d="M0 850 l0 -850 400 0 400 0 0 850 0 850 -400 0 -400 0 0 -850z m448
682 l40 -48 -50 -59 c-68 -82 -176 -244 -222 -335 l-39 -75 41 -58 41 -58 29
59 c48 97 109 197 164 269 57 76 108 133 119 133 11 0 112 -183 161 -289 l40
-89 -55 -69 c-109 -136 -182 -275 -237 -452 -36 -115 -70 -288 -70 -353 0 -27
-4 -48 -10 -48 -5 0 -10 22 -10 49 0 27 -11 105 -25 174 l-25 124 21 72 c45
164 126 339 217 471 l44 64 -31 64 c-17 34 -36 60 -41 57 -18 -11 -119 -172
-166 -265 -26 -52 -61 -135 -79 -183 l-32 -89 -46 94 c-26 51 -77 133 -114
182 -38 48 -72 94 -77 101 -11 16 87 221 167 350 61 98 182 255 196 255 5 0
27 -22 49 -48z"/>
</g>
</svg>
